HIERARCHY
ROOT Hips
{
	OFFSET -3.958830 18.904000 13.208200
	CHANNELS 6 Xposition Yposition Zposition Zrotation Yrotation Xrotation 
	JOINT LHipJoint
	{
		OFFSET 0.000000 0.000000 0.000000
		CHANNELS 3 Zrotation Yrotation Xrotation
		JOINT LeftUpLeg
		{
			OFFSET 1.800000 -1.400000 0.085000
			CHANNELS 3 Zrotation Yrotation Xrotation
			JOINT LeftLeg
			{
				OFFSET 2.215000 -6.000000 0.000000
				CHANNELS 3 Zrotation Yrotation Xrotation
				JOINT LeftFoot
				{
					OFFSET 2.500000 -6.900000 0.000000
					CHANNELS 3 Zrotation Yrotation Xrotation
					JOINT LeftToeBase
					{
						OFFSET 0.200000 -0.500000 1.950000
						CHANNELS 3 Zrotation Yrotation Xrotation
						End Site
						{
							OFFSET 0.000000 0.000000 0.000000
						}
					}
				}
			}
		}
	}
	JOINT RHipJoint
	{
		OFFSET 0.000000 0.000000 0.000000
		CHANNELS 3 Zrotation Yrotation Xrotation
		JOINT RightUpLeg
		{
			OFFSET -1.800000 -1.400000 0.085000
			CHANNELS 3 Zrotation Yrotation Xrotation
			JOINT RightLeg
			{
				OFFSET -2.215000 -6.000000 0.000000
				CHANNELS 3 Zrotation Yrotation Xrotation
				JOINT RightFoot
				{
					OFFSET -2.500000 -6.900000 0.000000
					CHANNELS 3 Zrotation Yrotation Xrotation
					JOINT RightToeBase
					{
						OFFSET -0.200000 -0.500000 1.950000
						CHANNELS 3 Zrotation Yrotation Xrotation
						End Site
						{
							OFFSET 0.000000 0.000000 0.000000
						}
					}
				}
			}
		}
	}
	JOINT LowerBack
	{
		OFFSET 0.000000 0.000000 0.000000
		CHANNELS 3 Zrotation Yrotation Xrotation
		JOINT Spine
		{
			OFFSET -0.087000 1.940000 -0.288900
			CHANNELS 3 Zrotation Yrotation Xrotation
			JOINT Spine1
			{
				OFFSET 0.000000 1.950000 0.060000
				CHANNELS 3 Zrotation Yrotation Xrotation
				JOINT Neck
				{
					OFFSET 0.000000 0.000000 0.000000
					CHANNELS 3 Zrotation Yrotation Xrotation
					JOINT Neck1
					{
						OFFSET 0.000000 1.600000 0.340000
						CHANNELS 3 Zrotation Yrotation Xrotation
						JOINT Head
						{
							OFFSET 0.000000 1.667000 -0.240000
							CHANNELS 3 Zrotation Yrotation Xrotation
							End Site
							{
								OFFSET 0.000000 0.000000 0.000000
							}
						}
					}
				}
				JOINT LeftShoulder
				{
					OFFSET 0.000000 0.000000 0.000000
					CHANNELS 3 Zrotation Yrotation Xrotation
					JOINT LeftArm
					{
						OFFSET 2.700000 1.550000 -0.730000
						CHANNELS 3 Zrotation Yrotation Xrotation
						JOINT LeftForeArm
						{
							OFFSET 5.450000 0.000000 0.000000
							CHANNELS 3 Zrotation Yrotation Xrotation
							JOINT LeftHand
							{
								OFFSET 3.450000 0.000000 0.000000
								CHANNELS 3 Zrotation Yrotation Xrotation
								JOINT LeftHandIndex1
								{
									OFFSET 0.750000 0.000000 0.000000
									CHANNELS 3 Zrotation Yrotation Xrotation
									End Site
									{
										OFFSET 0.000000 0.000000 0.000000
									}
								}
							}
						}
					}
				}
				JOINT RightShoulder
				{
					OFFSET 0.000000 0.000000 0.000000
					CHANNELS 3 Zrotation Yrotation Xrotation
					JOINT RightArm
					{
						OFFSET -2.700000 1.550000 -0.730000
						CHANNELS 3 Zrotation Yrotation Xrotation
						JOINT RightForeArm
						{
							OFFSET -5.450000 0.000000 0.000000
							CHANNELS 3 Zrotation Yrotation Xrotation
							JOINT RightHand
							{
								OFFSET -3.450000 0.000000 0.000000
								CHANNELS 3 Zrotation Yrotation Xrotation
								JOINT RightHandIndex1
								{
									OFFSET -0.750000 0.000000 0.000000
									CHANNELS 3 Zrotation Yrotation Xrotation
									End Site
									{
										OFFSET 0.000000 0.000000 0.000000
									}
								}
							}
						}
					}
				}
			}
		}
	}
}
MOTION
Frames: 6
Frame Time: 0.016667
-0.352560 16.640530 -4.912910 -11.464080 -63.105819 1.453772 -15.242563 14.334323 3.100637 10.433879 -0.264443 13.843800 -4.658478 7.954137 16.539432 0.279395 6.489226 2.585553 0.776960 0.507700 0.581100 18.106682 -10.403095 2.852435 0.251966 1.969666 -28.495974 0.006061 -4.190306 23.777345 -0.310723 -2.638748 3.364174 0.236830 0.070320 0.317000 -3.738439 -3.753611 -7.223523 13.864510 -11.713120 20.027478 -6.888286 -11.953413 14.899603 2.613986 -5.253902 -10.679555 -12.667855 5.394760 34.251990 -1.172270 0.970540 -21.092110 -12.116845 -13.903957 2.938158 -4.993625 -15.266252 -2.804129 22.155163 -15.219338 -3.408180 -3.555250 3.043510 0.614970 -0.083380 0.256310 0.374590 7.155297 13.968673 8.844725 4.237234 3.643800 0.570613 -168.584481 39.450956 -165.325649 2.027798 -2.162795 -0.031060 0.181880 -0.334900 -0.087830 
-0.433540 16.635460 -4.889340 -12.101892 -61.660288 2.009560 -15.180359 14.242237 3.075910 11.577816 -0.386883 13.990853 -4.973111 8.084757 16.313111 0.333273 6.525509 2.591338 0.726510 0.451620 0.552970 18.147887 -10.532099 2.874936 0.351053 2.123477 -27.556549 0.302186 -4.326090 23.854437 -0.316192 -2.721412 3.349560 0.185410 0.074750 0.325810 -3.893609 -3.355553 -7.196705 16.312081 -11.639088 20.821993 -8.149405 -11.388362 14.710108 3.293277 -4.614506 -10.941421 -10.748487 4.059738 31.794029 -2.173480 1.093010 -21.213200 -13.146366 -12.190239 2.244287 -5.974995 -12.845567 -3.354846 22.360844 -15.517154 -3.412613 -3.557079 3.050846 0.603740 -0.079090 0.253170 0.371820 6.672171 11.557854 10.450721 8.186555 -4.135174 1.127391 -169.543426 34.421276 -168.184526 2.116158 -2.194292 -0.026860 0.152980 -0.331500 -0.076860 
-0.496990 16.633180 -4.878590 -12.029881 -60.240510 1.970296 -15.124296 14.193320 3.057410 12.707925 -0.483490 13.432034 -5.848960 8.441464 16.676271 0.346378 6.627856 2.553418 0.633770 0.318520 0.498680 18.179914 -10.620172 2.913168 0.209681 2.393078 -27.081608 0.425854 -4.442744 24.273845 -0.299781 -2.800960 3.343454 0.094590 0.074990 0.320320 -3.955965 -3.082215 -7.214985 17.906878 -11.588257 22.360801 -8.912724 -10.682885 13.823649 3.828439 -4.241963 -11.348654 -9.458537 3.049865 29.614604 -2.618760 1.227160 -22.028480 -13.894488 -10.611513 1.977493 -7.634330 -8.141978 -4.502468 23.840154 -21.642153 -4.475983 -3.489314 3.074232 0.629990 -0.087890 0.217700 0.327210 6.252220 9.887722 11.622012 12.189290 -10.606816 0.686666 -169.411445 31.320301 -168.302845 2.167407 -2.169109 -0.048280 0.121070 -0.267790 -0.103270 
-0.539330 16.637960 -4.863850 -11.721576 -58.448835 1.688717 -15.083534 14.162763 3.059460 14.040893 -0.561197 12.460545 -7.521964 9.026632 17.087359 0.436182 6.777143 2.509994 0.575100 0.251600 0.435540 18.204119 -10.642512 2.919855 -0.623674 2.633868 -26.750353 1.407727 -4.798301 24.861994 -0.319911 -2.923669 3.306473 0.020520 0.093010 0.338170 -3.965461 -2.971496 -7.227267 19.432699 -11.775048 24.398861 -9.077168 -10.180569 12.323851 4.111535 -5.146615 -11.507661 -10.467488 3.316934 27.260020 -1.474940 1.368460 -23.346580 -14.290449 -7.823759 1.447238 -12.254187 -2.586601 -6.598486 26.779539 -31.614222 -7.151350 -3.368119 3.112753 0.631260 -0.107750 0.217320 0.322960 6.131830 8.099747 12.194239 15.403818 -15.531052 0.638368 -169.735068 27.370232 -168.073388 2.236884 -2.162405 -0.025430 0.099120 -0.234530 -0.076560 
-0.579220 16.656700 -4.849310 -10.716495 -56.507610 1.279340 -15.060890 14.222155 3.075518 14.741394 -0.510461 10.862728 -8.833881 9.440080 17.611255 0.486756 6.818663 2.481247 0.562370 0.242190 0.410900 18.207883 -10.603756 2.900466 -2.126966 2.675616 -26.195402 3.095361 -5.087277 23.838670 -0.331292 -2.883628 3.320690 -0.017310 0.069950 0.347250 -3.876798 -3.129575 -7.259636 19.956740 -12.000034 25.706279 -8.591429 -9.909936 10.198792 4.329075 -6.403713 -11.353592 -12.553173 4.256542 26.505837 -1.430420 1.967980 -25.008240 -15.411038 -5.044328 1.245363 -17.479907 3.758496 -8.962724 29.138821 -38.714597 -9.938473 -3.256443 3.125248 0.650080 -0.148040 0.246030 0.325010 6.900660 6.681107 11.721853 16.756359 -17.190266 0.091792 -168.787308 24.342170 -161.580527 2.257130 -2.149878 0.002940 0.078190 -0.231900 -0.059510 
-0.608770 16.704300 -4.826820 -10.220763 -53.793054 0.517768 -15.012243 14.378598 3.137430 15.727676 -0.530726 9.694746 -9.595771 9.709660 18.037652 0.550498 6.840468 2.472554 0.541800 0.220260 0.385030 18.209201 -10.586684 2.837209 -3.644188 2.377991 -23.881822 5.096600 -5.258520 21.398889 -0.351858 -2.741425 3.406533 -0.070630 0.030790 0.312720 -3.753492 -3.456235 -7.319869 21.312785 -13.098525 28.749725 -8.970865 -9.565597 5.327243 4.731533 -8.085207 -11.087045 -16.028035 5.579578 27.517222 -0.471320 2.231980 -27.913670 -16.958120 -1.597472 0.445162 -22.452617 8.923733 -11.408704 31.131267 -42.778863 -12.224659 -3.131735 3.053711 0.717400 -0.234700 0.293470 0.334060 7.621996 5.033634 11.241180 20.867479 -18.099078 -1.304113 -167.197777 20.547811 -148.093570 2.246223 -2.096880 0.007430 0.095350 -0.242220 -0.044880 
